{"asset":{"version":"2.0","generator":"THREE.GLTFExporter"},"scenes":[{"nodes":[2],"name":"AuxScene"}],"scene":0,"nodes":[{"mesh":0},{"mesh":1},{"matrix":[-0.9719073922593946,0,-0.23536359291817238,0,0,1,0,0,0.23536359291817238,0,-0.9719073922593946,0,0,0,0,1],"children":[0,1]}],"bufferViews":[{"buffer":0,"byteOffset":0,"byteLength":624,"target":34962,"byteStride":12},{"buffer":0,"byteOffset":624,"byteLength":624,"target":34962,"byteStride":12},{"buffer":0,"byteOffset":1248,"byteLength":416,"target":34962,"byteStride":8},{"buffer":0,"byteOffset":1664,"byteLength":192,"target":34963},{"buffer":0,"byteOffset":1856,"byteLength":136656,"target":34962,"byteStride":12},{"buffer":0,"byteOffset":138512,"byteLength":136656,"target":34962,"byteStride":12},{"buffer":0,"byteOffset":275168,"byteLength":91104,"target":34962,"byteStride":8},{"buffer":0,"byteOffset":366272,"byteLength":42048,"target":34963}],"buffers":[{"byteLength":408320,"uri":"data:application/octet-stream;base64,"}],"accessors":[{"bufferView":0,"componentType":5126,"count":52,"max":[1,35,1],"min":[-1,0,-1],"type":"VEC3"},{"bufferView":1,"componentType":5126,"count":52,"max":[0.9996695518493652,1,0.9996695518493652],"min":[-0.9996695518493652,-1,-0.9996695518493652],"type":"VEC3"},{"bufferView":2,"componentType":5126,"count":52,"max":[1,1],"min":[0,0],"type":"VEC2"},{"bufferView":3,"componentType":5123,"count":96,"max":[51],"min":[0],"type":"SCALAR"},{"bufferView":4,"componentType":5126,"count":11388,"max":[10.596288681030273,35.426788330078125,11.128623962402344],"min":[-10.735794067382812,7.059737682342529,-10.675779342651367],"type":"VEC3"},{"bufferView":5,"componentType":5126,"count":11388,"max":[0.998956024646759,0.8880590200424194,0.9988144040107727],"min":[-0.9991464018821716,-0.9457128643989563,-0.9990461468696594],"type":"VEC3"},{"bufferView":6,"componentType":5126,"count":11388,"max":[1,1],"min":[0,0],"type":"VEC2"},{"bufferView":7,"componentType":5123,"count":21024,"max":[11387],"min":[0],"type":"SCALAR"}],"materials":[{"pbrMetallicRoughness":{"baseColorFactor":[0,0,0,1],"metallicFactor":0,"roughnessFactor":0.9},"extensions":{"KHR_materials_unlit":{}}},{"pbrMetallicRoughness":{"baseColorFactor":[0.14901960784313725,0.24313725490196078,0.19215686274509805,1],"metallicFactor":0.5,"roughnessFactor":0.5}}],"meshes":[{"primitives":[{"mode":4,"attributes":{"POSITION":0,"NORMAL":1,"TEXCOORD_0":2},"extras":{"mergedUserData":[{}]},"indices":3,"material":0}]},{"primitives":[{"mode":4,"attributes":{"POSITION":4,"NORMAL":5,"TEXCOORD_0":6},"extras":{"mergedUserData":[{},{},{},{},{},{},{},{},{},{},{},{},{},{},{},{},{},{},{},{},{},{},{},{},{},{},{},{},{},{},{},{},{},{},{},{},{},{},{},{},{},{},{},{},{},{},{},{},{},{},{},{},{},{},{},{},{},{},{},{},{},{},{},{},{},{},{},{},{},{},{},{},{},{},{},{},{},{},{},{},{},{},{},{},{},{},{},{},{},{},{},{},{},{},{},{},{},{},{},{},{},{},{},{},{},{},{},{},{},{},{},{},{},{},{},{},{},{},{},{},{},{},{},{},{},{},{},{},{},{},{},{},{},{},{},{},{},{},{},{},{},{},{},{},{},{},{},{},{},{},{},{},{},{},{},{},{},{},{},{},{},{},{},{},{},{},{},{},{},{},{},{},{},{},{},{},{},{},{},{},{},{},{},{},{},{},{},{},{},{},{},{},{},{},{},{},{},{},{},{},{},{},{},{},{},{},{},{},{},{},{},{},{},{},{},{},{},{},{}]},"indices":7,"material":1}]}],"extensionsUsed":["KHR_materials_unlit"]}